<?xml version="1.0" encoding="UTF-8" ?>
<svg version="1.1" width="160" height="160" xmlns="http://www.w3.org/2000/svg" shape-rendering="crispEdges">
<rect x="20" y="0" width="120" height="10" fill="#06080F" />
<rect x="10" y="10" width="10" height="10" fill="#06080F" />
<rect x="20" y="10" width="120" height="30" fill="#A242CC" />
<rect x="140" y="10" width="10" height="10" fill="#06080F" />
<rect x="0" y="20" width="10" height="120" fill="#06080F" />
<rect x="10" y="20" width="10" height="120" fill="#A242CC" />
<rect x="140" y="20" width="10" height="120" fill="#A242CC" />
<rect x="150" y="20" width="10" height="120" fill="#06080F" />
<rect x="20" y="40" width="20" height="10" fill="#A242CC" />
<rect x="40" y="40" width="20" height="20" fill="#06080F" />
<rect x="60" y="40" width="40" height="10" fill="#A242CC" />
<rect x="100" y="40" width="20" height="20" fill="#06080F" />
<rect x="120" y="40" width="20" height="10" fill="#A242CC" />
<rect x="20" y="50" width="10" height="100" fill="#A242CC" />
<rect x="30" y="50" width="10" height="20" fill="#06080F" />
<rect x="60" y="50" width="10" height="20" fill="#06080F" />
<rect x="70" y="50" width="20" height="50" fill="#A242CC" />
<rect x="90" y="50" width="10" height="20" fill="#06080F" />
<rect x="120" y="50" width="10" height="20" fill="#06080F" />
<rect x="130" y="50" width="10" height="100" fill="#A242CC" />
<rect x="40" y="60" width="20" height="30" fill="#A242CC" />
<rect x="100" y="60" width="20" height="30" fill="#A242CC" />
<rect x="30" y="70" width="10" height="80" fill="#A242CC" />
<rect x="60" y="70" width="10" height="30" fill="#A242CC" />
<rect x="90" y="70" width="10" height="30" fill="#A242CC" />
<rect x="120" y="70" width="10" height="80" fill="#A242CC" />
<rect x="40" y="90" width="10" height="60" fill="#A242CC" />
<rect x="50" y="90" width="10" height="20" fill="#06080F" />
<rect x="100" y="90" width="10" height="20" fill="#06080F" />
<rect x="110" y="90" width="10" height="60" fill="#A242CC" />
<rect x="60" y="100" width="40" height="20" fill="#06080F" />
<rect x="50" y="110" width="10" height="40" fill="#A242CC" />
<rect x="100" y="110" width="10" height="40" fill="#A242CC" />
<rect x="60" y="120" width="40" height="30" fill="#A242CC" />
<rect x="10" y="140" width="10" height="10" fill="#06080F" />
<rect x="140" y="140" width="10" height="10" fill="#06080F" />
<rect x="20" y="150" width="120" height="10" fill="#06080F" />
</svg>